<svg width="101" height="144" viewBox="0 0 101 144" fill="none" xmlns="http://www.w3.org/2000/svg">
<rect width="101" height="144" rx="12" fill="#36173D"/>
<path d="M25.5 81.14H77.5V29.14H25.5V81.14Z" fill="white"/>
<path d="M25.23 106.5V95.925H26.79V100.485H32.715V95.925H34.26V106.5H32.715V101.79H26.79V106.5H25.23ZM39.774 106.635C39.034 106.635 38.394 106.48 37.854 106.17C37.314 105.86 36.894 105.425 36.594 104.865C36.304 104.295 36.159 103.62 36.159 102.84C36.159 102.06 36.304 101.39 36.594 100.83C36.894 100.26 37.314 99.82 37.854 99.51C38.394 99.2 39.034 99.045 39.774 99.045C40.494 99.045 41.124 99.2 41.664 99.51C42.204 99.82 42.624 100.26 42.924 100.83C43.224 101.39 43.374 102.06 43.374 102.84C43.374 103.62 43.224 104.295 42.924 104.865C42.624 105.425 42.204 105.86 41.664 106.17C41.124 106.48 40.494 106.635 39.774 106.635ZM39.774 105.465C40.394 105.465 40.894 105.24 41.274 104.79C41.654 104.34 41.844 103.69 41.844 102.84C41.844 101.99 41.654 101.345 41.274 100.905C40.894 100.455 40.394 100.23 39.774 100.23C39.144 100.23 38.639 100.455 38.259 100.905C37.879 101.345 37.689 101.99 37.689 102.84C37.689 103.69 37.879 104.34 38.259 104.79C38.639 105.24 39.144 105.465 39.774 105.465ZM45.1355 106.5V99.18H46.6055V100.365C46.8255 99.945 47.1305 99.62 47.5205 99.39C47.9105 99.16 48.3655 99.045 48.8855 99.045C50.0055 99.045 50.7305 99.535 51.0605 100.515C51.2905 100.055 51.6205 99.695 52.0505 99.435C52.4805 99.175 52.9705 99.045 53.5205 99.045C55.1605 99.045 55.9805 100.025 55.9805 101.985V106.5H54.4655V102.06C54.4655 101.44 54.3555 100.985 54.1355 100.695C53.9255 100.405 53.5755 100.26 53.0855 100.26C52.5355 100.26 52.1005 100.455 51.7805 100.845C51.4605 101.225 51.3005 101.745 51.3005 102.405V106.5H49.7855V102.06C49.7855 101.44 49.6805 100.985 49.4705 100.695C49.2605 100.405 48.9105 100.26 48.4205 100.26C47.8705 100.26 47.4355 100.455 47.1155 100.845C46.8055 101.225 46.6505 101.745 46.6505 102.405V106.5H45.1355ZM58.1586 106.5V99.18H59.6286V100.365C59.8486 99.945 60.1536 99.62 60.5436 99.39C60.9336 99.16 61.3886 99.045 61.9086 99.045C63.0286 99.045 63.7536 99.535 64.0836 100.515C64.3136 100.055 64.6436 99.695 65.0736 99.435C65.5036 99.175 65.9936 99.045 66.5436 99.045C68.1836 99.045 69.0036 100.025 69.0036 101.985V106.5H67.4886V102.06C67.4886 101.44 67.3786 100.985 67.1586 100.695C66.9486 100.405 66.5986 100.26 66.1086 100.26C65.5586 100.26 65.1236 100.455 64.8036 100.845C64.4836 101.225 64.3236 101.745 64.3236 102.405V106.5H62.8086V102.06C62.8086 101.44 62.7036 100.985 62.4936 100.695C62.2836 100.405 61.9336 100.26 61.4436 100.26C60.8936 100.26 60.4586 100.455 60.1386 100.845C59.8286 101.225 59.6736 101.745 59.6736 102.405V106.5H58.1586ZM74.5868 106.635C73.3868 106.635 72.4418 106.3 71.7518 105.63C71.0618 104.95 70.7168 104.025 70.7168 102.855C70.7168 102.105 70.8668 101.445 71.1668 100.875C71.4768 100.295 71.9018 99.845 72.4418 99.525C72.9818 99.205 73.6018 99.045 74.3018 99.045C75.3118 99.045 76.1068 99.37 76.6868 100.02C77.2668 100.66 77.5568 101.545 77.5568 102.675V103.185H72.1868C72.2968 104.705 73.1018 105.465 74.6018 105.465C75.0218 105.465 75.4318 105.4 75.8318 105.27C76.2418 105.14 76.6268 104.925 76.9868 104.625L77.4368 105.675C77.1068 105.975 76.6818 106.21 76.1618 106.38C75.6418 106.55 75.1168 106.635 74.5868 106.635ZM74.3618 100.11C73.7318 100.11 73.2318 100.305 72.8618 100.695C72.4918 101.085 72.2668 101.605 72.1868 102.255H76.2818C76.2518 101.575 76.0718 101.05 75.7418 100.68C75.4118 100.3 74.9518 100.11 74.3618 100.11Z" fill="white"/>
</svg>
